<?xml version="1.0" standalone="no"?>
<!DOCTYPE svg PUBLIC "-//W3C//DTD SVG 20010904//EN"
 "http://www.w3.org/TR/2001/REC-SVG-20010904/DTD/svg10.dtd">
<svg version="1.0" xmlns="http://www.w3.org/2000/svg"
 width="381.000000pt" height="244.000000pt" viewBox="0 0 381.000000 244.000000"
 preserveAspectRatio="xMidYMid meet">

<g transform="translate(0.000000,244.000000) scale(0.100000,-0.100000)"
fill="#000000" stroke="none">
<path d="M1380 1910 c-311 -204 -571 -377 -579 -384 -11 -12 22 -113 207 -632
l219 -619 723 0 723 0 220 618 c214 603 219 619 201 637 -22 20 -1111 736
-1134 745 -10 3 -224 -131 -580 -365z m642 -163 c26 -22 45 -44 41 -50 -3 -6
-1 -7 5 -3 13 8 208 -151 204 -166 -1 -5 1 -7 6 -4 10 6 142 -101 142 -115 0
-6 4 -7 10 -4 5 3 15 -3 22 -15 7 -11 18 -20 25 -20 6 0 20 -11 31 -25 11 -14
24 -25 28 -25 5 -1 27 -16 48 -35 l39 -35 -12 -55 c-8 -35 -16 -53 -23 -49 -7
4 -8 2 -4 -5 12 -18 -14 -113 -28 -108 -7 3 -13 -1 -13 -9 0 -7 4 -11 9 -8 12
8 10 -12 -7 -52 -15 -37 -15 -36 -15 -60 0 -9 -5 -12 -12 -8 -7 5 -8 3 -4 -5
5 -7 -3 -50 -15 -97 -19 -66 -27 -83 -39 -79 -12 5 -13 4 -2 -6 14 -15 16 -33
2 -24 -5 3 -7 0 -4 -9 5 -14 -10 -73 -67 -268 l-20 -68 -413 0 c-373 0 -414 2
-420 16 -4 9 -1 23 5 30 9 11 9 13 -2 9 -10 -4 -21 21 -42 99 -16 57 -30 110
-31 118 -2 7 -6 20 -9 28 -19 46 -37 131 -31 141 4 7 3 9 -2 6 -8 -4 -54 144
-81 258 -1 6 -15 54 -31 107 -29 96 -28 118 5 118 7 0 13 4 13 9 0 13 109 97
121 93 6 -1 8 1 5 6 -6 10 244 219 256 215 5 -2 8 1 8 6 0 16 233 201 244 194
6 -4 32 -24 58 -46z"/>
<path d="M1946 1728 c3 -5 10 -6 15 -3 13 9 11 12 -6 12 -8 0 -12 -4 -9 -9z"/>
<path d="M1895 1679 c-4 -6 -5 -12 -2 -15 2 -3 7 2 10 11 7 17 1 20 -8 4z"/>
<path d="M1560 1440 c-9 -6 -10 -10 -3 -10 6 0 15 5 18 10 8 12 4 12 -15 0z"/>
<path d="M2330 1169 c0 -5 -7 -9 -15 -9 -8 0 -30 -13 -48 -30 -35 -31 -54 -39
-41 -18 4 7 3 8 -5 4 -9 -6 -9 -11 -1 -21 7 -9 6 -15 -3 -24 -16 -13 -7 -104
14 -142 7 -13 12 -28 11 -32 -1 -5 1 -6 6 -3 5 3 19 -5 33 -17 29 -27 94 -34
146 -16 21 7 45 12 53 11 11 -2 12 0 3 5 -9 6 -4 17 16 39 24 26 28 37 27 91
-1 65 -17 98 -67 135 -26 20 -129 41 -129 27z m90 -64 c32 -17 60 -61 60 -95
0 -53 -57 -110 -110 -110 -34 0 -78 28 -95 60 -19 37 -19 63 0 100 28 54 90
73 145 45z"/>
<path d="M2239 1143 c-13 -16 -12 -17 4 -4 9 7 17 15 17 17 0 8 -8 3 -21 -13z"/>
</g>
</svg>
